<svg width="186" height="20" viewBox="0 0 186 20" fill="none" xmlns="http://www.w3.org/2000/svg">
<path d="M90.9513 3C88.0309 3 86.2057 4.44442 85.4758 7.33347C86.571 5.88884 87.8487 5.34716 89.3089 5.70842C90.142 5.91424 90.7374 6.51245 91.3966 7.17414C92.4703 8.25218 93.7131 9.5 96.4275 9.5C99.3479 9.5 101.173 8.05558 101.903 5.16653C100.808 6.61116 99.5303 7.15284 98.0701 6.79158C97.237 6.58576 96.6416 5.98755 95.9824 5.32586C94.9085 4.24782 93.6659 3 90.9513 3ZM85.4758 9.5C82.5554 9.5 80.7302 10.9444 80 13.8335C81.0952 12.3888 82.3728 11.8472 83.833 12.2084C84.6663 12.4146 85.2615 13.0124 85.9207 13.6741C86.9943 14.7522 88.2373 16 90.9515 16C93.8721 16 95.6973 14.5556 96.4275 11.6665C95.3323 13.1112 94.0545 13.6528 92.5943 13.2916C91.7612 13.0858 91.1658 12.4876 90.5066 11.8261C89.4329 10.7478 88.1901 9.5 85.4758 9.5Z" fill="white"/>
<path d="M112.853 8.47766H110.942V12.1369C110.942 13.1128 111.589 13.0974 112.853 13.0364V14.5154C110.294 14.8204 109.277 14.119 109.277 12.1369V8.47766H107.859V6.89193H109.277V4.84398L110.942 4.35615V6.89193H112.853V8.47766ZM120.139 6.89193H121.803V14.5156H120.139V13.4179C119.553 14.2259 118.644 14.7139 117.441 14.7139C115.345 14.7139 113.603 12.9604 113.603 10.704C113.603 8.4322 115.345 6.6941 117.441 6.6941C118.644 6.6941 119.553 7.18192 120.139 7.97468V6.89193ZM117.703 13.1435C119.09 13.1435 120.139 12.1218 120.139 10.704C120.139 9.28619 119.091 8.26447 117.703 8.26447C116.316 8.26447 115.268 9.28599 115.268 10.704C115.268 12.122 116.316 13.1435 117.703 13.1435ZM124.578 5.74835C123.992 5.74835 123.514 5.26033 123.514 4.69612C123.515 4.41726 123.627 4.14999 123.826 3.95281C124.026 3.75564 124.296 3.64462 124.578 3.64408C124.86 3.64462 125.13 3.75564 125.329 3.95281C125.528 4.14999 125.641 4.41726 125.641 4.69612C125.641 5.26033 125.163 5.74835 124.578 5.74835ZM123.745 14.5152V6.89193H125.41V14.5156L123.745 14.5152ZM127.337 14.5152V3.38522H129.001V14.5154L127.337 14.5152ZM139.806 6.89173H141.563L139.143 14.5156H137.509L135.906 9.37733L134.288 14.5156H132.654L130.234 6.89214H131.991L133.487 12.1523L135.105 6.89214H136.692L138.296 12.1523L139.806 6.89173ZM143.629 5.74835C143.043 5.74835 142.565 5.26033 142.565 4.69612C142.566 4.41726 142.678 4.14999 142.877 3.95281C143.077 3.75564 143.347 3.64462 143.629 3.64408C143.911 3.64462 144.181 3.75564 144.38 3.95281C144.579 4.14999 144.692 4.41726 144.692 4.69612C144.692 5.26033 144.214 5.74835 143.629 5.74835ZM142.796 14.5152V6.89193H144.461V14.5156L142.796 14.5152ZM150.441 6.69348C152.168 6.69348 153.401 7.85242 153.401 9.83443V14.5152H151.736V10.0024C151.736 8.84363 151.058 8.23375 150.01 8.23375C148.915 8.23375 148.052 8.87415 148.052 10.4292V14.5156H146.388V6.89193H148.052V7.86778C148.561 7.07502 149.393 6.69369 150.441 6.69369L150.441 6.69348ZM161.293 3.84253H162.957V14.5156H161.293V13.4179C160.707 14.2259 159.797 14.7139 158.595 14.7139C156.499 14.7139 154.757 12.9604 154.757 10.704C154.757 8.4322 156.499 6.6941 158.595 6.6941C159.797 6.6941 160.707 7.18192 161.293 7.97468V3.84253ZM158.857 13.1435C160.244 13.1435 161.292 12.1218 161.292 10.704C161.292 9.28619 160.244 8.26447 158.857 8.26447C157.47 8.26447 156.422 9.28599 156.422 10.704C156.422 12.122 157.47 13.1435 158.857 13.1435ZM168.537 14.7139C166.209 14.7139 164.468 12.9604 164.468 10.704C164.468 8.4322 166.209 6.6941 168.537 6.6941C170.047 6.6941 171.357 7.4715 171.974 8.66075L170.54 9.48403C170.201 8.76765 169.446 8.31014 168.521 8.31014C167.165 8.31014 166.132 9.33166 166.132 10.704C166.132 12.0763 167.165 13.0976 168.521 13.0976C169.446 13.0976 170.201 12.625 170.571 11.9238L172.005 12.7317C171.357 13.9363 170.047 14.7139 168.537 14.7139H168.537ZM174.748 8.9962C174.748 10.3837 178.894 9.54506 178.894 12.3659C178.894 13.8906 177.553 14.7139 175.889 14.7139C174.347 14.7139 173.238 14.0278 172.744 12.9301L174.178 12.1066C174.424 12.7927 175.041 13.2043 175.889 13.2043C176.629 13.2043 177.199 12.9606 177.199 12.3505C177.199 10.9936 173.053 11.756 173.053 9.02672C173.053 7.59356 174.301 6.6941 175.873 6.6941C177.137 6.6941 178.185 7.27326 178.725 8.27962L177.322 9.05723C177.045 8.46271 176.505 8.18808 175.873 8.18808C175.272 8.18808 174.748 8.44735 174.748 8.9962ZM181.854 8.9962C181.854 10.3837 186 9.54506 186 12.3659C186 13.8906 184.659 14.7139 182.994 14.7139C181.453 14.7139 180.343 14.0278 179.85 12.9301L181.283 12.1066C181.53 12.7927 182.147 13.2043 182.994 13.2043C183.734 13.2043 184.304 12.9606 184.304 12.3505C184.304 10.9936 180.158 11.756 180.158 9.02672C180.158 7.59356 181.407 6.6941 182.979 6.6941C184.243 6.6941 185.291 7.27326 185.83 8.27962L184.428 9.05723C184.15 8.46271 183.611 8.18808 182.979 8.18808C182.378 8.18808 181.854 8.44735 181.854 8.9962Z" fill="white"/>
<path fill-rule="evenodd" clip-rule="evenodd" d="M6.19593 0.0452824C5.51401 0.157961 4.94749 0.683527 4.6472 1.48213C4.4184 2.09057 4.37268 2.42812 4.37564 3.48566C4.37841 4.4702 4.43859 5.01997 4.63338 5.84017C4.67734 6.02526 4.71332 6.19095 4.71332 6.20834C4.71332 6.22573 4.60064 6.27109 4.46288 6.30912C4.00627 6.43518 3.13794 6.77594 2.59651 7.04149C1.10252 7.77434 0.261715 8.61835 0.0414465 9.60629C-0.07007 10.1065 0.0424082 10.6208 0.391503 11.2069C0.576509 11.5175 1.13225 12.067 1.58837 12.3903C2.23159 12.8463 3.28624 13.3562 4.22382 13.6645C4.47249 13.7463 4.68363 13.8209 4.693 13.8303C4.70238 13.8397 4.68323 13.9501 4.65045 14.0756C4.40818 15.0034 4.28701 16.5482 4.38883 17.4114C4.49842 18.3408 4.75267 18.9615 5.20999 19.4165C5.63903 19.8432 6.01686 19.9934 6.66323 19.9943C7.32027 19.9951 7.9358 19.8312 8.71108 19.449C9.43147 19.0938 10.3513 18.4463 11.0369 17.8115L11.2835 17.5831L11.6749 17.9325C12.7036 18.8507 13.7643 19.5172 14.6643 19.811C15.0943 19.9514 15.4095 20.0015 15.8516 20C16.4895 19.9977 16.9294 19.8105 17.3322 19.3698C17.5907 19.0869 17.7442 18.813 17.8928 18.3695C18.1009 17.7482 18.154 17.3493 18.1539 16.4084C18.1537 15.5395 18.1 15.0102 17.9343 14.2465C17.8915 14.0492 17.8565 13.8598 17.8565 13.8256C17.8565 13.7818 18.0074 13.7127 18.37 13.5906C19.3473 13.2613 20.2191 12.837 20.9219 12.3487C21.3192 12.0726 21.9241 11.4767 22.1213 11.1671C22.5834 10.4416 22.616 9.70014 22.2176 8.97534C22.0078 8.59351 21.3887 7.9686 20.8784 7.62344C20.1773 7.14916 19.1364 6.66499 18.1855 6.37087C17.8502 6.26717 17.7771 6.2309 17.794 6.17681C17.8419 6.02338 17.9769 5.30944 18.042 4.86522C18.13 4.26468 18.1425 2.84906 18.0638 2.40376C17.9417 1.7135 17.7936 1.30462 17.5095 0.873662C17.1165 0.277532 16.5834 0.000964345 15.8255 2.65078e-06C14.5936 -0.00160017 13.1958 0.723638 11.4557 2.2672L11.2458 2.45337L10.9949 2.2208C10.2707 1.54949 9.36516 0.9179 8.58013 0.536508C7.66372 0.0912434 6.88675 -0.0688387 6.19593 0.0452824ZM6.30897 1.01711C5.94697 1.11461 5.72406 1.36946 5.52767 1.91053C5.24245 2.69635 5.24582 3.98987 5.53689 5.42909C5.59483 5.71559 5.65001 5.9579 5.65951 5.9676C5.669 5.97726 5.97843 5.92801 6.34708 5.85817C6.93247 5.74721 7.70828 5.63257 8.43989 5.54886L8.66027 5.52366L9.00087 5.06052C9.3813 4.54321 10.1135 3.64787 10.3977 3.35247L10.5837 3.15913L10.3833 2.98021C9.13731 1.86741 7.94349 1.17399 6.97995 1.00333C6.68207 0.950558 6.54571 0.953363 6.30897 1.01711ZM15.2319 1.03959C14.3642 1.26836 13.1655 2.01083 12.2026 2.91586L11.9486 3.15464L12.2926 3.55058C12.8091 4.14503 13.6889 5.27209 13.8285 5.51793C13.8312 5.52269 14.0759 5.55471 14.3723 5.58901C15.1867 5.68334 16.4887 5.90124 16.7792 5.99188C16.8324 6.00851 16.8591 5.93915 16.9298 5.60035C17.2107 4.25434 17.2459 3.08632 17.032 2.21018C16.8816 1.59393 16.5367 1.10142 16.1877 1.00453C15.9585 0.940901 15.5492 0.955927 15.2319 1.03959ZM28.4752 8.73491V13.8239H29.1163H29.7575V11.8003V9.77675H30.7496H31.7417L33.0401 11.8003L34.3384 13.8239H35.1153C35.7571 13.8239 35.8866 13.8145 35.8602 13.7697C35.8426 13.7399 35.2331 12.8169 34.5058 11.7187C33.7785 10.6204 33.1893 9.7116 33.1963 9.69917C33.2033 9.68675 33.3205 9.65582 33.4567 9.63041C34.3241 9.46873 35.075 8.91323 35.4399 8.16323C35.6453 7.7412 35.7255 7.41663 35.7543 6.89167C35.832 5.47649 35.1284 4.32546 33.9042 3.86465C33.3379 3.65152 33.2583 3.64595 30.7766 3.64595H28.4752V8.73491ZM10.9007 4.25702C10.5642 4.64531 9.96257 5.3871 9.96257 5.41362C9.96257 5.42212 10.5469 5.42909 11.2611 5.42909C11.9752 5.42909 12.5521 5.41711 12.543 5.40244C12.4023 5.17476 11.3039 3.88637 11.2506 3.88637C11.2348 3.88637 11.0773 4.05314 10.9007 4.25702ZM61.5735 5.40905V6.41082H60.9725H60.3714V6.95177V7.49273H60.9725H61.5735L61.5742 10.0072C61.575 12.688 61.5852 12.8531 61.7754 13.246C61.8897 13.4821 62.1383 13.7208 62.3978 13.8436C62.8835 14.0733 63.6847 14.0561 64.2005 13.8046C64.6569 13.5822 64.6546 13.5886 64.4583 13.0865C64.367 12.8529 64.2843 12.6618 64.2746 12.6618C64.2649 12.6618 64.1536 12.7204 64.0272 12.7921C63.8278 12.9051 63.7599 12.9223 63.514 12.9223C63.2679 12.9223 63.2118 12.908 63.0888 12.8143C63.0109 12.755 62.9131 12.6378 62.8714 12.5539C62.8 12.4101 62.795 12.2612 62.7848 9.94705L62.7738 7.49273H63.5161H64.2582V6.95177V6.41082H63.5169H62.7756V5.40905V4.40729H62.1746H61.5735V5.40905ZM29.7575 6.73138V8.65477H31.0508C31.7621 8.65477 32.4949 8.63586 32.6792 8.61274C33.4618 8.51461 34.0288 8.09202 34.2905 7.41166C34.3958 7.1379 34.433 6.59514 34.3679 6.28183C34.2592 5.75851 33.8986 5.27794 33.4415 5.04722C32.99 4.81925 32.8868 4.80799 31.2517 4.80799H29.7575V6.73138ZM39.6549 6.32555C38.3422 6.61322 37.3717 7.55467 36.9439 8.9553C36.8398 9.29606 36.8337 9.36006 36.832 10.1174C36.8299 11.0298 36.883 11.3146 37.1696 11.9275C37.3705 12.3571 37.5254 12.5831 37.8472 12.9158C38.6285 13.7237 39.7404 14.1008 40.9932 13.9826C41.5871 13.9267 41.9973 13.8176 42.4799 13.5875C42.8449 13.4134 43.5017 12.9509 43.5017 12.8678C43.5017 12.8432 43.1068 12.2919 42.9555 12.1053C42.9485 12.0967 42.878 12.1418 42.7987 12.2055C42.2774 12.624 41.7964 12.8567 41.2268 12.9657C40.3182 13.1396 39.4313 12.8875 38.8308 12.2848C38.6751 12.1285 38.4896 11.898 38.4185 11.7727C38.2575 11.4884 38.0985 11.0272 38.0659 10.7493L38.041 10.5381H41.0118H43.9825L43.9823 10.1674C43.9816 9.06025 43.6098 8.00022 42.9852 7.32491C42.5501 6.85436 42.0944 6.57234 41.4704 6.3873C40.9854 6.24348 40.1578 6.21531 39.6549 6.32555ZM47.9695 6.29229C47.211 6.41018 46.3961 6.81249 45.9082 7.30992L45.7302 7.49144L46.0017 7.89279C46.151 8.11354 46.2825 8.29414 46.2939 8.29414C46.3054 8.29414 46.4415 8.17673 46.5965 8.03328C47.1638 7.50803 47.8415 7.26829 48.6643 7.30175C49.3723 7.33052 49.8215 7.53845 50.1223 7.97658C50.345 8.30083 50.3938 8.55179 50.3938 9.37276V10.0739L50.2235 9.91099C49.6721 9.38338 48.9548 9.12572 48.0296 9.12296C47.4445 9.12124 47.1161 9.18855 46.6754 9.40049C46.3023 9.57996 45.8465 10.0027 45.6762 10.3273C45.4459 10.7663 45.405 10.9488 45.405 11.5399C45.405 12.1329 45.4457 12.3131 45.6798 12.7592C45.8288 13.043 46.2094 13.4324 46.5177 13.6164C47.5991 14.2618 49.1846 14.0825 50.2235 13.1973L50.3938 13.0522V13.438V13.8239H50.9748H51.5559V11.0654C51.5559 8.44829 51.5518 8.29109 51.4766 7.99701C51.3684 7.57391 51.2242 7.3209 50.9094 7.00186C50.6109 6.69933 50.2474 6.50062 49.7447 6.3651C49.4049 6.2735 48.3649 6.23082 47.9695 6.29229ZM56.3443 6.307C54.8495 6.59687 53.7985 7.66383 53.478 9.21676C53.3565 9.80532 53.3819 10.7399 53.5343 11.2874C53.7383 12.0204 54.0446 12.5441 54.5538 13.0306C55.2589 13.7043 56.0376 13.9953 57.1257 13.9919C58.0143 13.9891 58.6669 13.7732 59.2545 13.2875C59.395 13.1714 59.5764 12.995 59.6577 12.8955L59.8054 12.7145L59.5775 12.4974C59.4522 12.378 59.2768 12.213 59.1879 12.1307L59.0261 11.9811L58.7243 12.2772C58.259 12.7336 57.765 12.9413 57.1457 12.941C56.1728 12.9407 55.3631 12.4386 54.9506 11.5799C54.7061 11.071 54.6235 10.685 54.629 10.0773C54.6439 8.44448 55.6481 7.32591 57.1056 7.31854C57.7884 7.31509 58.2574 7.50238 58.721 7.9636C59.0595 8.30043 58.9847 8.31213 59.4933 7.84294L59.8304 7.53199L59.4436 7.15449C59.1171 6.83581 58.9985 6.74906 58.6823 6.59763C58.4763 6.49897 58.1906 6.38806 58.0473 6.35115C57.6926 6.25975 56.7181 6.23451 56.3443 6.307ZM9.90246 6.4093C9.638 6.42621 9.37153 6.44247 9.31034 6.44544C9.21441 6.45013 9.15755 6.51476 8.89861 6.91358C8.42049 7.65004 8.01966 8.33469 7.56607 9.18984L7.14412 9.98532L7.29447 10.2918C7.69674 11.1117 8.33414 12.2207 8.91348 13.1086L9.21806 13.5753L10.001 13.6051C10.7758 13.6346 13.0136 13.603 13.2097 13.5597C13.2855 13.543 13.3882 13.4186 13.6144 13.0696C14.0596 12.3826 14.5739 11.4935 14.9849 10.7001L15.3474 10.0006L15.0346 9.39083C14.6536 8.648 14.0725 7.6462 13.6291 6.96796L13.2992 6.46323L13.0634 6.43686C12.6899 6.39515 10.4322 6.37548 9.90246 6.4093ZM7.40442 6.65301C6.94738 6.72217 6.14548 6.87111 5.98877 6.91595C5.92918 6.93302 5.93627 6.97762 6.05376 7.32411C6.25471 7.91683 6.60305 8.81518 6.63146 8.81401C6.64536 8.81345 6.801 8.54794 6.97731 8.22397C7.15362 7.90004 7.44509 7.39559 7.62505 7.10304C7.80497 6.81048 7.9402 6.5727 7.92558 6.57467C7.91091 6.57659 7.67642 6.61189 7.40442 6.65301ZM14.7091 6.84454C14.9087 7.15329 15.5974 8.34819 15.7553 8.6597L15.8623 8.87091L16.0391 8.43226C16.1878 8.06317 16.5742 6.99489 16.5742 6.95277C16.5742 6.9216 15.3237 6.68663 14.6836 6.59755L14.5361 6.57703L14.7091 6.84454ZM4.35268 7.36863C3.06814 7.80099 2.19107 8.29065 1.54754 8.93479C1.15577 9.32692 0.990679 9.60248 0.958022 9.91872C0.937746 10.1152 0.950809 10.1704 1.07863 10.429C1.38365 11.0462 2.11322 11.6576 3.1706 12.182C3.71608 12.4526 4.77607 12.8622 4.93074 12.8622C4.95675 12.8622 5.01962 12.7315 5.07039 12.5717C5.23171 12.0643 5.58862 11.1232 5.83473 10.5561L6.07275 10.0077L5.81831 9.42016C5.55977 8.82311 5.11899 7.65221 5.03625 7.34246C5.0112 7.24878 4.9779 7.17236 4.9622 7.1726C4.94653 7.17288 4.67225 7.26108 4.35268 7.36863ZM17.3998 7.56285C17.2706 7.96516 16.7657 9.25263 16.5636 9.69493L16.427 9.99381L16.615 10.3962C16.8509 10.901 17.2424 11.8758 17.4203 12.4014C17.4949 12.6218 17.5599 12.8091 17.5648 12.8175C17.5696 12.8261 17.7499 12.7748 17.9655 12.7036C19.213 12.2916 20.323 11.6785 20.9396 11.0608C21.7068 10.2923 21.7185 9.71737 20.982 8.9761C20.5167 8.50783 19.8423 8.07667 19.0185 7.72069C18.5502 7.51833 17.6841 7.21223 17.5798 7.21223C17.5303 7.21223 17.4824 7.3056 17.3998 7.56285ZM40.0885 7.25775C39.6292 7.31549 39.2193 7.50759 38.8571 7.83485C38.4866 8.16952 38.1192 8.90525 38.0654 9.42008L38.0406 9.65654H40.4306C42.8102 9.65654 42.8205 9.65618 42.8205 9.57471C42.8205 9.34771 42.68 8.83894 42.5354 8.54181C42.0829 7.61258 41.152 7.12404 40.0885 7.25775ZM10.9057 7.97674C10.5817 8.02578 10.1284 8.2485 9.87714 8.48211C9.03089 9.26894 8.99394 10.5927 9.79567 11.4009C10.1521 11.7602 10.557 11.9531 11.0637 12.005C11.795 12.0799 12.6213 11.6682 12.9849 11.0477C13.4524 10.25 13.347 9.26337 12.723 8.59635C12.2599 8.10128 11.5906 7.87308 10.9057 7.97674ZM47.8335 10.0405C47.3284 10.1763 46.9442 10.4876 46.7345 10.9307C46.6212 11.1703 46.6075 11.2381 46.6075 11.5599C46.6075 11.8811 46.6213 11.9496 46.7336 12.187C47.0447 12.8446 47.7104 13.1863 48.5707 13.1297C49.2356 13.0861 49.7556 12.8666 50.1834 12.4491L50.3938 12.2438V11.5564V10.869L50.1634 10.64C49.632 10.1119 48.5773 9.8405 47.8335 10.0405ZM15.7773 11.2891C15.6465 11.5603 15.1228 12.4878 14.8234 12.9783C14.6835 13.2074 14.5777 13.4035 14.5882 13.414C14.6146 13.4404 15.3982 13.3245 16.0659 13.1955L16.6195 13.0885L16.5939 12.9854C16.5587 12.8431 16.2113 11.9195 16.0238 11.4695L15.8692 11.0985L15.7773 11.2891ZM6.58422 11.2855C6.46068 11.5261 5.89624 13.1002 5.92505 13.1237C5.96873 13.1593 7.92025 13.4721 7.94706 13.4478C7.95146 13.4438 7.79118 13.1707 7.59083 12.8408C7.39052 12.511 7.09528 12.0004 6.93471 11.7063L6.6428 11.1714L6.58422 11.2855ZM16.5341 14.0868C16.1546 14.1793 15.3407 14.3098 14.5854 14.3993L13.8588 14.4853L13.5085 14.966C13.084 15.5485 12.6899 16.0471 12.2807 16.5198L11.9741 16.8738L12.2406 17.1225C13.1748 17.9947 14.34 18.7219 15.1717 18.952C15.6011 19.0708 16.0328 19.0667 16.3067 18.9413C17.1553 18.5528 17.4501 16.6292 16.9928 14.465C16.8859 13.959 16.9253 13.9915 16.5341 14.0868ZM5.57772 14.3548C5.38715 15.1948 5.33818 15.6316 5.33626 16.5086C5.33417 17.4806 5.38262 17.7932 5.6125 18.2918C5.7701 18.6335 5.91315 18.8082 6.13086 18.9246C6.27323 19.0008 6.35714 19.0128 6.73688 19.0114C7.12537 19.01 7.22138 18.9948 7.54591 18.8828C8.45379 18.5695 9.39537 17.9712 10.4142 17.0602L10.6054 16.8893L10.339 16.5888C9.93244 16.1301 9.38455 15.4561 9.01185 14.9561C8.80064 14.6728 8.64332 14.4991 8.58799 14.4881C8.53958 14.4786 8.28361 14.4503 8.01914 14.4253C7.44141 14.3707 6.59511 14.2466 6.08133 14.1412C5.87505 14.0989 5.69216 14.0643 5.67493 14.0643C5.65774 14.0643 5.61399 14.195 5.57772 14.3548ZM11.2552 14.5844L9.96333 14.6053L10.2593 14.976C10.6878 15.5125 11.2436 16.148 11.2844 16.148C11.3251 16.148 11.9925 15.3581 12.3594 14.8757C12.4977 14.6939 12.5965 14.5493 12.579 14.5543C12.5615 14.5594 11.9658 14.5729 11.2552 14.5844Z" fill="white"/>
</svg>
